<?xml version="1.0" encoding="UTF-8" standalone="no"?>
<!-- Created with Inkscape (http://www.inkscape.org/) -->

<svg
   width="300mm"
   height="73.140999mm"
   viewBox="0 0 300 73.140999"
   version="1.1"
   id="svg767"
   xml:space="preserve"
   xmlns="http://www.w3.org/2000/svg"
   xmlns:svg="http://www.w3.org/2000/svg"><defs
     id="defs764" /><g
     id="layer1"><g
       id="g5275"
       transform="matrix(2.2016259,0,0,2.2016259,-143.23705,-30.822875)"><g
         id="g5263"><path
           d="m 72.190011,22.710468 c 1.348669,2.313164 4.67995,3.293533 7.91598,2.186869 1.561042,-0.531636 2.842331,-1.463322 3.712986,-2.582333 1.132417,-1.455208 1.566686,-3.230739 1.010003,-4.86163 -0.984955,-2.883253 -4.696883,-4.225925 -8.290277,-2.998611 -3.593395,1.226608 -5.707239,4.558594 -4.722636,7.443963 0.09913,0.286456 0.224366,0.556331 0.373944,0.811742"
           style="opacity:1;fill:#76b42a;fill-opacity:1;fill-rule:nonzero;stroke:none;stroke-width:0.352778"
           id="path783"
           clip-path="none" /><path
           d="m 96.348232,24.625698 c -3.300942,-2.417939 -7.574844,-2.478969 -10.678583,-0.457553 -0.848078,0.553156 -1.611136,1.261534 -2.241197,2.120547 -2.586214,3.531306 -2.082447,8.416925 0.964494,11.633906 0.405342,0.426508 0.852311,0.8255 1.345142,1.186391 4.204405,3.081514 9.986786,2.337859 12.918016,-1.661583 2.931586,-4.0005 1.896886,-9.738783 -2.307872,-12.821708"
           style="opacity:1;fill:#e02213;fill-opacity:1;fill-rule:nonzero;stroke:none;stroke-width:0.352778"
           id="path787"
           clip-path="none" /><path
           d="m 70.309705,24.916034 c -0.409575,-0.1905 -0.846314,-0.299861 -1.303514,-0.299861 -2.179814,0 -3.946525,2.347383 -3.946525,5.242983 0,2.895247 1.766711,5.242278 3.946525,5.242278 0.289278,0 0.570089,-0.04445 0.842433,-0.12312 1.77412,-0.512939 3.103386,-2.607733 3.103386,-5.119158 0,-2.287411 -1.104899,-4.228394 -2.642305,-4.943122"
           style="opacity:1;fill:#005ca5;fill-opacity:1;fill-rule:nonzero;stroke:none;stroke-width:0.352778"
           id="path791"
           clip-path="none" /><path
           d="m 80.600233,37.480215 c -3.053644,-2.235553 -6.848122,-2.244725 -8.477955,-0.02081 -0.07126,0.09701 -0.135467,0.197908 -0.196498,0.299156 -1.328208,2.23908 -0.148166,5.639858 2.77107,7.778044 3.052233,2.237669 6.847416,2.246842 8.478308,0.02328 1.243189,-1.698625 0.866069,-4.204052 -0.738011,-6.289675 -0.497064,-0.648405 -1.11372,-1.258358 -1.836914,-1.789994"
           style="opacity:1;fill:#ffd900;fill-opacity:1;fill-rule:nonzero;stroke:none;stroke-width:0.352778"
           id="path795"
           clip-path="none" /></g><g
         id="g5257"><path
           d="m 72.955539,29.859156 c 0,-2.287764 -1.105958,-4.227689 -2.643364,-4.942417 -0.980369,1.5621 -1.551164,3.430411 -1.551164,5.438423 0,1.670402 0.394406,3.242027 1.090084,4.622799 1.774472,-0.512586 3.104444,-2.608086 3.104444,-5.118805"
           style="opacity:1;fill:#5995c4;fill-opacity:1;fill-rule:nonzero;stroke:none;stroke-width:0.352778"
           id="path809"
           clip-path="none" /><path
           d="m 80.106344,24.897337 c 1.560689,-0.531283 2.84233,-1.463322 3.713339,-2.580922 -1.565275,-1.18992 -3.488972,-1.893358 -5.570361,-1.893358 -2.304345,0 -4.415367,0.859013 -6.058958,2.287411 1.348669,2.313163 4.679597,3.29318 7.91598,2.186869"
           style="opacity:1;fill:#a6ce74;fill-opacity:1;fill-rule:nonzero;stroke:none;stroke-width:0.352778"
           id="path833"
           clip-path="none" /><path
           d="m 80.600233,37.480215 c -3.053644,-2.235553 -6.848122,-2.244725 -8.477955,-0.02081 -0.07126,0.09701 -0.135467,0.197908 -0.196498,0.299156 1.679223,1.571977 3.89502,2.529063 6.325306,2.529063 1.503186,0 2.923822,-0.366183 4.186061,-1.017411 -0.497064,-0.648405 -1.11372,-1.258358 -1.836914,-1.789994"
           style="opacity:1;fill:#ffe659;fill-opacity:1;fill-rule:nonzero;stroke:none;stroke-width:0.352778"
           id="path857"
           clip-path="none" /><path
           d="m 87.740455,30.355162 c 0,-2.339622 -0.775758,-4.489803 -2.0701,-6.187722 -0.848783,0.553508 -1.612194,1.262239 -2.241197,2.121253 -2.586567,3.5306 -2.0828,8.416572 0.964494,11.633905 2.046464,-1.82245 3.346803,-4.534958 3.346803,-7.567436"
           style="opacity:1;fill:#eb6f65;fill-opacity:1;fill-rule:nonzero;stroke:none;stroke-width:0.352778"
           id="path881"
           clip-path="none" /></g></g><path
       id="path895"
       clip-path="none"
       style="fill:#004384;fill-opacity:1;fill-rule:nonzero;stroke:none;stroke-width:0.776685"
       d="m 188.72967,14.075035 -5.36323,44.772763 h 12.51722 l 1.72933,-15.38541 h 3.25048 c 0.40464,0 1.24801,5.5e-4 2.22197,-0.0034 l 6.75692,19.018155 h 12.51609 l -7.40543,-20.886294 c 2.23995,-1.182114 3.71788,-2.910094 4.9559,-5.151604 2.00308,-3.620125 2.12215,-7.233043 2.33575,-9.750274 0.34794,-4.068273 -0.82872,-7.807314 -4.06279,-10.174647 -0.77125,-0.56931 -3.13761,-2.439276 -10.49436,-2.439276 z m 55.7859,4.332445 c -3.11218,0.004 -5.84745,0.137699 -8.40662,0.686047 -1.91143,0.413196 -3.74931,1.094254 -5.36094,2.155981 -2.43879,1.59997 -4.12554,3.923282 -5.25174,6.753516 -1.14018,2.851207 -1.84481,6.326879 -2.35508,10.776501 -0.45203,3.954096 -0.5722,7.138277 -0.25142,9.799197 0.2431,1.9953 0.73613,3.710867 1.60758,5.183459 1.28229,2.230637 3.56426,3.744325 6.21198,4.468973 2.65549,0.749499 5.64675,0.912287 9.14727,0.919278 5.93776,-0.0016 11.21539,-0.8676 14.38194,-1.422152 l 2.07407,-0.367484 2.78741,-10.699136 -4.53495,1.246944 c -1.87647,0.518826 -7.10351,1.914785 -13.64242,1.914785 -1.54251,0.0046 -2.68128,-0.102882 -3.37562,-0.292394 -0.52736,-0.143678 -0.8054,-0.294055 -1.0524,-0.498322 -0.35262,-0.306015 -0.75831,-0.888854 -1.00916,-2.235624 -0.1561,-0.844255 -0.22734,-1.958608 -0.20707,-3.357415 h 6.37239 c 3.13003,0 5.82913,-0.162238 8.23142,-0.569999 1.80192,-0.307567 3.44757,-0.754008 4.94113,-1.414188 2.24539,-0.97241 4.11953,-2.510937 5.29154,-4.356337 1.18368,-1.844624 1.75309,-3.898732 2.01717,-6.174416 0.22913,-2.027922 0.17393,-3.867345 -0.37203,-5.556633 -0.41087,-1.258227 -1.12782,-2.418908 -2.14916,-3.368793 -1.53783,-1.434536 -3.65716,-2.327119 -6.14256,-2.856819 -2.50247,-0.530475 -5.43434,-0.734969 -8.95273,-0.734969 z m -132.93822,0.0011 c -2.93743,0 -5.49597,0.162485 -7.79341,0.575688 -1.72035,0.309117 -3.30457,0.767077 -4.749979,1.435804 -2.17006,0.987942 -3.96859,2.531381 -5.09245,4.362026 -1.1417,1.829868 -1.70034,3.866099 -1.96596,6.142558 -0.22913,2.027145 -0.16953,3.87484 0.34473,5.568011 0.38601,1.267549 1.05413,2.437596 2.0149,3.415439 1.44693,1.482692 3.48975,2.46622 5.884289,3.047958 2.40772,0.588726 5.21287,0.823654 8.53632,0.825986 1.48966,0 2.72585,0.06954 3.65322,0.209339 1.42522,0.212809 2.00797,0.556105 2.22311,0.792993 0.11955,0.126593 0.21224,0.261897 0.28672,0.54383 0.0738,0.2765 0.11059,0.702259 0.0432,1.304968 -0.0916,0.801539 -0.3031,1.317353 -0.5097,1.630354 -0.32077,0.454361 -0.58349,0.687068 -1.57687,1.031915 -0.97552,0.31611 -2.62315,0.533754 -4.81029,0.526766 -6.68259,0.007 -12.495019,-1.486976 -14.040619,-1.925027 l -0.64396,-0.178622 -1.81352,9.901592 0.57341,0.105808 c 3.14558,0.573193 9.070059,1.417437 14.856379,1.424428 2.93584,-0.0016 5.5449,-0.167575 7.90601,-0.57455 1.76773,-0.306792 3.40297,-0.750503 4.90586,-1.398259 2.24773,-0.956875 4.18083,-2.438177 5.45537,-4.281247 1.2854,-1.840739 1.94802,-3.94165 2.21287,-6.263158 0.2369,-2.069086 0.12074,-3.966612 -0.50287,-5.676093 -0.90795,-2.583252 -3.12408,-4.578191 -6.07316,-5.662441 h -10e-4 c -2.95373,-1.109882 -6.57278,-1.51606 -11.00065,-1.522273 -1.48968,0.0024 -2.66676,-0.07156 -3.49393,-0.205927 -0.62445,-0.09786 -1.04133,-0.230197 -1.28677,-0.343592 -0.35961,-0.186412 -0.38755,-0.228474 -0.51881,-0.480119 -0.11735,-0.252421 -0.22388,-0.834795 -0.10808,-1.818079 0.098,-0.879983 0.29667,-1.48497 0.48696,-1.830595 0.14531,-0.265626 0.26558,-0.392111 0.40615,-0.506285 0.20123,-0.161556 0.5555,-0.368804 1.40055,-0.555209 0.82871,-0.182514 2.08452,-0.303824 3.72488,-0.301495 3.21935,0 5.90892,0.348049 7.9982,0.756585 2.09784,0.413971 3.55301,0.873015 4.44621,1.14796 l 3.7192,1.145687 -0.37656,-10.692308 -1.36756,-0.258264 c -2.9141,-0.548339 -7.56521,-1.424483 -13.35229,-1.422152 z m 154.75519,0.175208 -4.66809,40.265111 h 15.92698 c 1.16658,0 5.96892,-0.01793 7.1153,-0.09329 0.94523,-0.06757 1.87695,-0.174609 2.8113,-0.361796 0.82017,-0.164659 1.64523,-0.390612 2.46774,-0.714489 0.72,-0.284267 1.43597,-0.645618 2.12411,-1.092213 1.20928,-0.783671 2.28262,-1.82853 3.1424,-3.033167 0.64232,-0.893961 1.17166,-1.866232 1.6167,-2.902326 0.67182,-1.551816 1.17155,-3.254428 1.58939,-5.189149 0.41787,-1.937827 0.7497,-4.11699 1.04329,-6.627231 0.31921,-2.77975 0.49834,-5.155983 0.49834,-7.2507 0,-0.774351 -0.0249,-1.505472 -0.0762,-2.206042 l -1.02622,0.07281 1.02622,-0.07623 c -0.14442,-1.954136 -0.50115,-3.712905 -1.25376,-5.292682 -0.56698,-1.193763 -1.37271,-2.248529 -2.3824,-3.057057 -0.74639,-0.607366 -1.57209,-1.061648 -2.42333,-1.394846 -1.27375,-0.498631 -2.5809,-0.742347 -3.90126,-0.880598 -1.33123,-0.135928 -2.70679,-0.166108 -4.17316,-0.166108 z m -133.57082,0.386826 -2.26974,19.808873 c -0.45125,3.954875 -0.56917,7.137502 -0.24918,9.799197 0.24,1.994523 0.73155,3.709731 1.60533,5.182323 1.28386,2.230637 3.56499,3.745463 6.21425,4.470109 2.6547,0.749499 5.64873,0.914619 9.14612,0.919278 3.11608,-0.004 5.85016,-0.138434 8.40777,-0.688321 1.91066,-0.411643 3.74704,-1.093479 5.35867,-2.155984 2.44035,-1.599191 4.12627,-3.922916 5.254,-6.752378 1.14172,-2.850429 1.84512,-6.324602 2.3585,-10.774224 l 2.27203,-19.808873 h -12.51494 l -2.27316,19.808873 c -0.32776,2.892373 -0.73726,5.119645 -1.22193,6.742138 -0.35959,1.213957 -0.76651,2.079275 -1.13544,2.633827 -0.28117,0.41708 -0.52782,0.662608 -0.75771,0.837362 -0.3402,0.255529 -0.70369,0.430066 -1.45629,0.591616 -0.73939,0.158452 -1.83056,0.24125 -3.22316,0.238921 -1.65588,0.0062 -2.84531,-0.119108 -3.53035,-0.328802 -0.51883,-0.159992 -0.77035,-0.313078 -1.0251,-0.563171 -0.36582,-0.362712 -0.80203,-1.161503 -0.98298,-2.832927 -0.18648,-1.649676 -0.10746,-4.06388 0.26849,-7.318964 l 2.26977,-19.808873 z m 66.89803,4.558851 h 6.85479 c 3.15878,0 3.20389,2.544402 3.02292,4.094661 -0.18406,1.550262 0.0351,0.365312 -0.27875,2.15712 -0.48387,2.761112 -1.66908,4.271007 -5.92297,4.271007 -2.68189,0 -4.79778,0.0011 -4.79778,0.0011 z m 43.78865,4.201607 c 1.67453,-7.77e-4 2.98441,0.09257 3.91488,0.252573 0.69979,0.119614 1.17563,0.276604 1.46767,0.416407 0.43804,0.227569 0.51842,0.330499 0.66443,0.630297 0.13738,0.300577 0.23742,0.909474 0.12173,1.894307 -0.098,0.870664 -0.29634,1.455521 -0.48352,1.779396 -0.14377,0.248539 -0.25612,0.362786 -0.41301,0.482396 -0.22912,0.172429 -0.68686,0.416369 -1.68723,0.612094 -0.98019,0.198058 -2.43038,0.317477 -4.31537,0.315147 h -6.37011 c 0.2431,-1.154152 0.50954,-2.112407 0.79071,-2.887536 0.35728,-0.987942 0.74417,-1.665151 1.0797,-2.089994 0.53048,-0.630669 0.80643,-0.792117 1.52797,-1.039879 0.72,-0.226791 1.96702,-0.370646 3.70215,-0.365208 z m 34.31595,0.307184 h 6.85363 c 3.16035,0 3.20317,2.545538 3.02066,4.095799 -0.18252,1.551814 -1.33819,11.242345 -1.65197,13.032602 -0.48698,2.763441 -1.66866,4.271007 -5.92411,4.271007 -2.67879,0 -4.79891,0.0011 -4.79891,0.0011 z" /></g></svg>
