<?xml version="1.0" encoding="UTF-8"?>
<svg xmlns="http://www.w3.org/2000/svg" xmlns:xlink="http://www.w3.org/1999/xlink" width="430px" height="105px" viewBox="0 0 430 105" version="1.1">
<g id="surface1">
<path style=" stroke:none;fill-rule:nonzero;fill:rgb(46.27451%,70.588237%,16.470589%);fill-opacity:1;" d="M 22.5 27.546875 C 26.757812 34.863281 37.269531 37.964844 47.480469 34.464844 C 52.40625 32.78125 56.449219 29.835938 59.199219 26.296875 C 62.769531 21.695312 64.140625 16.078125 62.386719 10.921875 C 59.277344 1.804688 47.5625 -2.445312 36.222656 1.4375 C 24.882812 5.316406 18.214844 15.855469 21.320312 24.980469 C 21.632812 25.886719 22.027344 26.738281 22.5 27.546875 "/>
<path style=" stroke:none;fill-rule:nonzero;fill:rgb(87.843138%,13.333334%,7.450981%);fill-opacity:1;" d="M 98.734375 33.605469 C 88.320312 25.957031 74.832031 25.765625 65.039062 32.15625 C 62.363281 33.90625 59.953125 36.148438 57.964844 38.863281 C 49.804688 50.03125 51.394531 65.484375 61.007812 75.65625 C 62.289062 77.007812 63.699219 78.269531 65.253906 79.410156 C 78.519531 89.15625 96.769531 86.804688 106.019531 74.152344 C 115.269531 61.503906 112.003906 43.355469 98.734375 33.605469 "/>
<path style=" stroke:none;fill-rule:nonzero;fill:rgb(0%,36.078432%,64.705884%);fill-opacity:1;" d="M 16.566406 34.523438 C 15.273438 33.921875 13.898438 33.574219 12.453125 33.574219 C 5.574219 33.574219 0 41 0 50.15625 C 0 59.3125 5.574219 66.734375 12.453125 66.734375 C 13.367188 66.734375 14.253906 66.59375 15.113281 66.34375 C 20.710938 64.722656 24.90625 58.097656 24.90625 50.15625 C 24.90625 42.921875 21.417969 36.78125 16.566406 34.523438 "/>
<path style=" stroke:none;fill-rule:nonzero;fill:rgb(100%,85.09804%,0%);fill-opacity:1;" d="M 49.039062 74.257812 C 39.402344 67.1875 27.429688 67.160156 22.285156 74.191406 C 22.0625 74.5 21.859375 74.816406 21.667969 75.136719 C 17.476562 82.21875 21.199219 92.976562 30.410156 99.738281 C 40.042969 106.8125 52.019531 106.84375 57.164062 99.8125 C 61.089844 94.4375 59.898438 86.515625 54.835938 79.917969 C 53.269531 77.867188 51.324219 75.9375 49.039062 74.257812 "/>
<path style=" stroke:none;fill-rule:nonzero;fill:rgb(34.901962%,58.431375%,76.862746%);fill-opacity:1;" d="M 24.917969 50.15625 C 24.917969 42.921875 21.425781 36.785156 16.574219 34.523438 C 13.480469 39.464844 11.679688 45.375 11.679688 51.722656 C 11.679688 57.007812 12.925781 61.976562 15.121094 66.34375 C 20.71875 64.722656 24.917969 58.097656 24.917969 50.15625 "/>
<path style=" stroke:none;fill-rule:nonzero;fill:rgb(65.098041%,80.784315%,45.490196%);fill-opacity:1;" d="M 47.480469 34.464844 C 52.40625 32.785156 56.453125 29.835938 59.199219 26.300781 C 54.261719 22.539062 48.191406 20.3125 41.621094 20.3125 C 34.351562 20.3125 27.6875 23.03125 22.5 27.546875 C 26.757812 34.863281 37.269531 37.960938 47.480469 34.464844 "/>
<path style=" stroke:none;fill-rule:nonzero;fill:rgb(100%,90.196079%,34.901962%);fill-opacity:1;" d="M 49.039062 74.257812 C 39.402344 67.1875 27.429688 67.160156 22.285156 74.191406 C 22.0625 74.5 21.859375 74.816406 21.667969 75.136719 C 26.964844 80.109375 33.957031 83.136719 41.628906 83.136719 C 46.371094 83.136719 50.855469 81.980469 54.835938 79.917969 C 53.269531 77.867188 51.324219 75.9375 49.039062 74.257812 "/>
<path style=" stroke:none;fill-rule:nonzero;fill:rgb(92.156863%,43.529412%,39.607844%);fill-opacity:1;" d="M 71.574219 51.722656 C 71.574219 44.324219 69.125 37.523438 65.039062 32.15625 C 62.363281 33.90625 59.953125 36.148438 57.96875 38.863281 C 49.804688 50.03125 51.394531 65.480469 61.011719 75.65625 C 67.46875 69.894531 71.574219 61.316406 71.574219 51.722656 "/>
<path style=" stroke:none;fill-rule:nonzero;fill:rgb(0%,26.274511%,51.764709%);fill-opacity:1;" d="M 270.511719 20.21875 L 262.824219 84.535156 L 280.765625 84.535156 L 283.242188 62.433594 L 287.902344 62.433594 C 288.480469 62.433594 289.691406 62.433594 291.085938 62.429688 L 300.773438 89.746094 L 318.710938 89.746094 L 308.097656 59.746094 C 311.308594 58.046875 313.425781 55.5625 315.199219 52.34375 C 318.070312 47.144531 318.242188 41.953125 318.546875 38.339844 C 319.046875 32.492188 317.359375 27.121094 312.726562 23.722656 C 311.621094 22.90625 308.226562 20.21875 297.683594 20.21875 Z M 350.46875 26.441406 C 346.007812 26.449219 342.089844 26.640625 338.421875 27.425781 C 335.679688 28.019531 333.046875 29 330.738281 30.523438 C 327.242188 32.824219 324.824219 36.160156 323.207031 40.226562 C 321.574219 44.320312 320.566406 49.3125 319.832031 55.707031 C 319.183594 61.386719 319.011719 65.960938 319.472656 69.78125 C 319.820312 72.648438 320.527344 75.113281 321.777344 77.226562 C 323.613281 80.433594 326.886719 82.605469 330.679688 83.648438 C 334.488281 84.722656 338.773438 84.957031 343.792969 84.96875 C 352.300781 84.964844 359.867188 83.722656 364.40625 82.925781 L 367.378906 82.398438 L 371.375 67.027344 L 364.875 68.820312 C 362.183594 69.566406 354.691406 71.570312 345.320312 71.570312 C 343.109375 71.578125 341.476562 71.421875 340.480469 71.148438 C 339.726562 70.945312 339.328125 70.726562 338.972656 70.433594 C 338.46875 69.996094 337.886719 69.15625 337.527344 67.222656 C 337.304688 66.011719 337.199219 64.410156 337.230469 62.398438 L 346.363281 62.398438 C 350.851562 62.398438 354.71875 62.167969 358.160156 61.582031 C 360.746094 61.140625 363.101562 60.5 365.242188 59.550781 C 368.460938 58.152344 371.148438 55.941406 372.828125 53.292969 C 374.523438 50.640625 375.339844 47.691406 375.71875 44.421875 C 376.046875 41.507812 375.96875 38.867188 375.1875 36.441406 C 374.597656 34.632812 373.570312 32.964844 372.105469 31.601562 C 369.902344 29.539062 366.863281 28.257812 363.300781 27.496094 C 359.714844 26.734375 355.511719 26.441406 350.46875 26.441406 Z M 159.925781 26.445312 C 155.714844 26.445312 152.050781 26.675781 148.757812 27.269531 C 146.289062 27.714844 144.019531 28.371094 141.949219 29.332031 C 138.835938 30.753906 136.257812 32.96875 134.648438 35.597656 C 133.011719 38.226562 132.210938 41.152344 131.832031 44.421875 C 131.503906 47.335938 131.585938 49.988281 132.324219 52.421875 C 132.878906 54.242188 133.835938 55.921875 135.210938 57.328125 C 137.285156 59.457031 140.214844 60.871094 143.648438 61.707031 C 147.097656 62.550781 151.117188 62.886719 155.882812 62.890625 C 158.015625 62.890625 159.789062 62.992188 161.117188 63.191406 C 163.160156 63.5 163.996094 63.992188 164.304688 64.332031 C 164.476562 64.511719 164.609375 64.707031 164.714844 65.113281 C 164.820312 65.511719 164.875 66.121094 164.777344 66.988281 C 164.644531 68.140625 164.34375 68.878906 164.046875 69.328125 C 163.585938 69.980469 163.210938 70.316406 161.785156 70.8125 C 160.390625 71.265625 158.027344 71.578125 154.890625 71.570312 C 145.3125 71.578125 136.984375 69.433594 134.765625 68.804688 L 133.84375 68.546875 L 131.246094 82.769531 L 132.066406 82.921875 C 136.574219 83.746094 145.066406 84.957031 153.359375 84.96875 C 157.570312 84.964844 161.308594 84.726562 164.691406 84.144531 C 167.226562 83.703125 169.570312 83.066406 171.722656 82.132812 C 174.945312 80.757812 177.71875 78.632812 179.542969 75.984375 C 181.386719 73.339844 182.335938 70.320312 182.714844 66.988281 C 183.054688 64.015625 182.890625 61.289062 181.996094 58.832031 C 180.695312 55.125 177.515625 52.257812 173.289062 50.699219 C 169.054688 49.105469 163.867188 48.523438 157.519531 48.511719 C 155.386719 48.515625 153.699219 48.410156 152.511719 48.21875 C 151.617188 48.078125 151.019531 47.886719 150.667969 47.722656 C 150.152344 47.457031 150.113281 47.394531 149.925781 47.035156 C 149.757812 46.671875 149.605469 45.835938 149.769531 44.421875 C 149.910156 43.160156 150.195312 42.289062 150.46875 41.792969 C 150.675781 41.410156 150.847656 41.230469 151.050781 41.066406 C 151.339844 40.832031 151.847656 40.535156 153.058594 40.269531 C 154.246094 40.007812 156.046875 39.832031 158.398438 39.835938 C 163.011719 39.835938 166.867188 40.335938 169.859375 40.921875 C 172.867188 41.515625 174.953125 42.175781 176.234375 42.570312 L 181.566406 44.214844 L 181.023438 28.855469 L 179.066406 28.488281 C 174.886719 27.699219 168.222656 26.441406 159.925781 26.445312 Z M 381.742188 26.695312 L 375.050781 84.535156 L 397.878906 84.535156 C 399.550781 84.535156 406.433594 84.507812 408.078125 84.402344 C 409.429688 84.304688 410.765625 84.148438 412.105469 83.882812 C 413.28125 83.644531 414.464844 83.320312 415.644531 82.855469 C 416.675781 82.445312 417.703125 81.925781 418.6875 81.285156 C 420.421875 80.160156 421.960938 78.660156 423.191406 76.929688 C 424.113281 75.644531 424.871094 74.25 425.507812 72.761719 C 426.472656 70.53125 427.1875 68.085938 427.789062 65.304688 C 428.386719 62.523438 428.863281 59.390625 429.28125 55.785156 C 429.738281 51.792969 429.996094 48.378906 429.996094 45.371094 C 429.996094 44.257812 429.960938 43.207031 429.886719 42.203125 L 428.417969 42.304688 L 429.886719 42.195312 C 429.679688 39.390625 429.167969 36.863281 428.089844 34.59375 C 427.277344 32.878906 426.121094 31.363281 424.675781 30.203125 C 423.605469 29.328125 422.421875 28.675781 421.203125 28.199219 C 419.375 27.484375 417.503906 27.132812 415.609375 26.933594 C 413.703125 26.738281 411.730469 26.695312 409.628906 26.695312 Z M 190.289062 27.25 L 187.039062 55.707031 C 186.390625 61.386719 186.222656 65.957031 186.679688 69.78125 C 187.023438 72.648438 187.726562 75.109375 188.980469 77.226562 C 190.820312 80.429688 194.089844 82.605469 197.886719 83.648438 C 201.691406 84.722656 205.984375 84.960938 210.996094 84.96875 C 215.464844 84.960938 219.382812 84.769531 223.046875 83.980469 C 225.785156 83.386719 228.417969 82.410156 230.730469 80.882812 C 234.226562 78.585938 236.644531 75.246094 238.257812 71.183594 C 239.894531 67.089844 240.90625 62.097656 241.640625 55.707031 L 244.898438 27.25 L 226.957031 27.25 L 223.699219 55.707031 C 223.230469 59.859375 222.644531 63.058594 221.949219 65.390625 C 221.433594 67.132812 220.851562 68.378906 220.320312 69.175781 C 219.917969 69.773438 219.566406 70.125 219.234375 70.378906 C 218.75 70.742188 218.226562 70.996094 217.148438 71.226562 C 216.089844 71.453125 214.523438 71.574219 212.527344 71.570312 C 210.15625 71.578125 208.449219 71.398438 207.46875 71.097656 C 206.726562 70.867188 206.363281 70.648438 206 70.289062 C 205.476562 69.769531 204.847656 68.621094 204.589844 66.21875 C 204.324219 63.847656 204.4375 60.382812 204.976562 55.707031 L 208.226562 27.25 Z M 286.175781 33.800781 L 296.003906 33.800781 C 300.53125 33.800781 300.59375 37.453125 300.335938 39.679688 C 300.070312 41.910156 300.386719 40.207031 299.933594 42.78125 C 299.242188 46.746094 297.542969 48.914062 291.445312 48.914062 C 287.601562 48.914062 284.570312 48.917969 284.570312 48.917969 Z M 348.941406 39.835938 C 351.339844 39.832031 353.21875 39.96875 354.550781 40.199219 C 355.554688 40.371094 356.238281 40.59375 356.65625 40.796875 C 357.28125 41.121094 357.398438 41.269531 357.605469 41.703125 C 357.804688 42.132812 357.949219 43.007812 357.78125 44.421875 C 357.640625 45.671875 357.355469 46.511719 357.089844 46.980469 C 356.882812 47.335938 356.722656 47.5 356.496094 47.671875 C 356.167969 47.917969 355.511719 48.269531 354.078125 48.550781 C 352.671875 48.835938 350.59375 49.007812 347.894531 49.003906 L 338.761719 49.003906 C 339.109375 47.34375 339.492188 45.96875 339.894531 44.855469 C 340.410156 43.4375 340.960938 42.464844 341.445312 41.851562 C 342.203125 40.949219 342.597656 40.714844 343.632812 40.359375 C 344.664062 40.035156 346.453125 39.828125 348.941406 39.835938 Z M 398.125 40.277344 L 407.949219 40.277344 C 412.480469 40.277344 412.539062 43.933594 412.277344 46.160156 C 412.015625 48.390625 410.359375 62.308594 409.910156 64.878906 C 409.214844 68.851562 407.519531 71.015625 401.421875 71.015625 C 397.582031 71.015625 394.542969 71.019531 394.542969 71.019531 Z M 398.125 40.277344 "/>
</g>
</svg>
